Coordinates
version=1
nRows=8
nColumns=36
inDegrees=yes

Units are S.I. units (second, meters, Newtons, ...)
If the header above contains a line with 'inDegrees', this indicates whether rotational values are in degrees (yes) or radians (no).

endheader
time	pelvis_tilt	pelvis_list	pelvis_rotation	pelvis_tx	pelvis_ty	pelvis_tz	hip_flexion_r	hip_adduction_r	hip_rotation_r	knee_angle_r	knee_angle_r_beta	ankle_angle_r	subtalar_angle_r	mtp_angle_r	hip_flexion_l	hip_adduction_l	hip_rotation_l	knee_angle_l	knee_angle_l_beta	ankle_angle_l	subtalar_angle_l	mtp_angle_l	lumbar_extension	lumbar_bending	lumbar_rotation	arm_flex_r	arm_add_r	arm_rot_r	elbow_flex_r	pro_sup_r	arm_flex_l	arm_add_l	arm_rot_l	elbow_flex_l	pro_sup_l
      0.00000000	     -5.05243591	     -1.91752931	    -44.58778795	      1.25769101	      1.21105472	     -0.17975790	     32.24930061	      6.37152058	     -7.67088056	     19.72575049	      0.34427929	    -12.52021274	    -11.18645908	     -6.30333124	     27.90429605	    -20.06829645	     -1.58904098	     16.55519190	      0.28894261	    -17.71277181	      0.16121907	     -6.30333124	    -14.81625511	      2.48204046	      2.35225013	     11.22805034	    -17.53597717	     11.35134701	     22.90647181	     87.99525064	      1.86213487	    -17.47006098	    -10.86235051	     26.77857793	     87.34486420
      0.01666670	     -8.12471071	      3.30389536	    -44.33594248	      1.26765992	      1.19994562	     -0.17936489	     42.05128675	      3.06529056	    -10.69847775	     27.27997001	      0.47612530	     -5.58665594	      1.37081195	     -6.42509936	     37.43739298	    -18.53544372	     -1.71089911	     22.06841071	      0.38516643	    -19.06868117	      6.62710539	     -6.42509936	     -6.68872579	      0.69849222	      4.00000032	      7.01235096	    -17.64260479	      9.17659226	     21.81546977	     88.33736206	      2.65388805	    -17.94192831	     -8.07930861	     24.04620372	     88.94746909
      0.03333330	    -11.22452032	      8.00866494	    -44.63439926	      1.28761702	      1.19075658	     -0.17836420	     46.96288151	      1.50099634	    -11.39938992	     26.42283352	      0.46116544	     -8.29811362	      2.89554469	     -6.52057006	     43.03872729	    -17.33298580	     -1.83175487	     22.30079359	      0.38922227	    -23.74274905	      7.44267049	     -6.52057006	      2.97930425	     -0.48612268	      5.57968343	      3.47346729	    -18.18653493	     10.49863261	     19.82667549	     90.26954815	      1.94744731	    -18.68279523	     -3.54033206	     20.91937496	     92.45457771
      0.05000000	    -15.52030552	     12.65742493	    -44.46484269	      1.29546081	      1.17930679	     -0.18565771	     52.96602920	      0.56563879	    -13.50209033	     26.00111217	      0.45380502	    -10.98465772	      3.40367316	     -6.60595368	     49.34785302	    -16.75489997	     -1.11398727	     21.94050745	      0.38293409	    -25.16869557	      8.76388432	     -6.60595368	     13.24964533	     -0.65728770	      6.58924628	      1.06111735	    -18.52443501	     12.70127561	     17.64193050	     91.00686953	      0.85430173	    -19.07140179	     -0.61488862	     18.73483151	     94.27408919
      0.06666670	    -19.75588197	     16.26714788	    -43.99773328	      1.29854415	      1.17225353	     -0.18758224	     57.90872674	      0.65521821	    -14.63741595	     24.90546393	      0.43468235	    -14.92588597	      1.09670554	     -6.59743442	     55.22559463	    -17.30222421	     -0.39351872	     21.48281225	      0.37494581	    -27.81928488	     12.28934474	     -6.59743442	     21.66419618	     -0.36664555	      7.41529570	     -0.71594817	    -18.39191031	     14.70066413	     16.12337625	     92.31693673	      0.21770014	    -19.37669138	      1.45510758	     17.35023448	     96.74635859
      0.08333330	    -22.46856927	     18.06742577	    -44.02598418	      1.30046616	      1.16803027	     -0.19379257	     61.01950061	      1.61489602	    -14.08003084	     24.55883316	      0.42863250	    -17.52174365	     -1.72553655	     -6.67415199	     58.82482727	    -18.39715546	     -0.14661730	     20.64828197	      0.36038051	    -32.46645628	     18.77770888	     -6.67415199	     25.82689194	      0.31834683	      8.49365049	     -1.39183309	    -18.38203706	     16.64626422	     15.48931662	     92.72967558	      0.38930005	    -19.70660586	      3.91966506	     17.01289077	     98.49334967
      0.10000000	    -23.08876199	     17.60676688	    -44.59543645	      1.30420851	      1.17499121	     -0.19655839	     59.92328650	      3.14187331	    -13.69407619	     21.80622062	      0.38059035	    -21.96655671	     -6.21415556	     -6.78946542	     58.58948933	    -19.66344174	     -0.86555689	     18.40316779	      0.32119587	    -39.29007745	     25.94242712	     -6.78946542	     25.48522269	      1.34074967	      9.24975590	     -1.01429335	    -18.58615762	     18.46972136	     15.10728311	     93.21037820	      1.75354587	    -20.25000541	      7.21377295	     16.80818856	    100.78346419
      0.11666670	    -22.58640703	     17.84372312	    -45.29126194	      1.32630636	      1.17390520	     -0.20257697	     58.28068569	      2.90377062	    -13.37953356	     19.20460291	      0.33518355	    -24.81859419	     -9.31382023	     -6.85271581	     56.75664918	    -18.92434965	     -1.15494303	     15.81984778	      0.27610843	    -44.19860474	     31.66270652	     -6.85271581	     25.58824434	      1.51809363	     10.16485856	     -0.89681139	    -18.58719212	     19.76007273	     14.08700621	     93.36433552	      2.43260382	    -20.19261951	      9.39642071	     16.19105058	    101.57862659
